<?xml version="1.0" encoding="utf-8"?>
<!-- Generator: Adobe Illustrator 19.0.0, SVG Export Plug-In . SVG Version: 6.00 Build 0)  -->
<svg version="1.1"
	 id="svg2" xmlns:dc="http://purl.org/dc/elements/1.1/" xmlns:sodipodi="http://sodipodi.sourceforge.net/DTD/sodipodi-0.dtd" xmlns:svg="http://www.w3.org/2000/svg" xmlns:inkscape="http://www.inkscape.org/namespaces/inkscape" xmlns:cc="http://creativecommons.org/ns#" xmlns:rdf="http://www.w3.org/1999/02/22-rdf-syntax-ns#" sodipodi:docname="collab_me_blue_logo_night.ai"
	 xmlns="http://www.w3.org/2000/svg" xmlns:xlink="http://www.w3.org/1999/xlink" x="0px" y="0px"
	 viewBox="-1236 398.7 1365.3 1365.3" style="enable-background:new -1236 398.7 1365.3 1365.3;" xml:space="preserve">
<style type="text/css">
	.st0{fill:url(#path32_1_);}
</style>
<sodipodi:namedview  guidetolerance="10" gridtolerance="10" objecttolerance="10" borderopacity="1" pagecolor="#ffffff" bordercolor="#666666" id="namedview4" inkscape:window-height="480" inkscape:window-width="640" inkscape:pageshadow="2" inkscape:pageopacity="0">
	</sodipodi:namedview>
<g id="g14">
	<g id="g20">
		<g id="g22">
			
				<linearGradient id="path32_1_" gradientUnits="userSpaceOnUse" x1="-2470.8374" y1="2163.0854" x2="-2469.6619" y2="2163.0854" gradientTransform="matrix(791.9622 584.051 584.051 -791.9622 692430.625 3156833.5)">
				<stop  offset="0" style="stop-color:#001FA8"/>
				<stop  offset="1.400000e-007" style="stop-color:#001FA8"/>
				<stop  offset="1" style="stop-color:#1599FF"/>
			</linearGradient>
			<path id="path32" class="st0" d="M-607,695.9c-0.3,0.3-0.7,0.6-1,0.9l0,0c-14,14-22.6,33.3-22.6,54.7l0,0
				c0,21.3,8.7,40.6,22.6,54.6l0,0l0.1,0.1c14,14,33.3,22.6,54.6,22.6l0,0c21.3,0,40.7-8.7,54.7-22.6l0,0l0,0l0,0
				c14-14,22.6-33.3,22.6-54.6l0,0c0-21.3-8.7-40.7-22.6-54.7l0,0c-14-14-33.3-22.6-54.7-22.6l0,0
				C-574.2,674.1-593.1,682.4-607,695.9 M-585.3,783.5c-8.2-8.2-13.2-19.5-13.2-32l0,0c0-12.5,5.1-23.8,13.2-32l0,0
				c0.2-0.2,0.5-0.5,0.7-0.7l0,0c8.1-7.8,19.1-12.5,31.3-12.5l0,0c12.5,0,23.8,5.1,32,13.2l0,0c8.2,8.2,13.2,19.5,13.2,32l0,0
				c0,12.5-5.1,23.8-13.2,32l0,0l0,0c-8.2,8.2-19.5,13.2-32,13.2l0,0C-565.8,796.7-577.2,791.6-585.3,783.5 M-109.1,764.1
				c-0.3,0.3-0.7,0.6-1,0.9l0,0c-14,14-22.6,33.3-22.6,54.7l0,0c0,21.3,8.7,40.6,22.6,54.6l0,0l0.1,0.1c14,14,33.3,22.6,54.6,22.6
				l0,0c21.4,0,40.7-8.7,54.7-22.6l0,0l0,0l0,0c14-14,22.6-33.3,22.6-54.6l0,0c0-21.3-8.7-40.7-22.6-54.7l0,0
				c-14-14-33.3-22.6-54.7-22.6l0,0C-76.3,742.4-95.2,750.7-109.1,764.1 M-87.4,851.7c-8.2-8.2-13.2-19.5-13.2-32l0,0
				c0-12.5,5.1-23.8,13.2-32l0,0c0.2-0.2,0.5-0.5,0.7-0.7l0,0c8.1-7.8,19.1-12.5,31.3-12.5l0,0c12.5,0,23.8,5.1,32,13.2l0,0
				c8.2,8.2,13.2,19.5,13.2,32l0,0c0,12.5-5.1,23.8-13.2,32l0,0l0,0c-8.2,8.2-19.5,13.2-32,13.2l0,0
				C-67.9,864.9-79.2,859.9-87.4,851.7 M-1105.9,765L-1105.9,765L-1105.9,765c-14.1,14-22.7,33.3-22.7,54.7l0,0
				c0,21.3,8.7,40.6,22.6,54.6l0,0l0.1,0.1c14,14,33.3,22.6,54.6,22.6l0,0c21.4,0,40.7-8.7,54.7-22.6l0,0c0.3-0.3,0.6-0.7,0.9-1l0,0
				c13.5-13.9,21.7-32.8,21.7-53.7l0,0c0-21.3-8.7-40.7-22.6-54.7l0,0c-14-14-33.3-22.6-54.7-22.6l0,0
				C-1072.6,742.4-1091.9,751-1105.9,765 M-1083.3,851.7c-8.2-8.2-13.2-19.5-13.2-32l0,0c0-12.5,5.1-23.8,13.2-32l0,0l0,0
				c8.2-8.2,19.5-13.2,32-13.2l0,0c12.5,0,23.8,5.1,32,13.2l0,0c8.2,8.2,13.2,19.5,13.2,32l0,0c0,12.2-4.8,23.2-12.5,31.3l0,0
				c-0.2,0.2-0.5,0.4-0.7,0.7l0,0c-8.2,8.2-19.5,13.2-32,13.2l0,0C-1063.8,864.9-1075.1,859.9-1083.3,851.7 M-423.9,846.7
				c-45.7,0.4-89.7,12.1-129.4,32l0,0c-39.7-19.9-83.7-31.6-129.4-32l0,0c-59.5-0.5-113.9,4.6-165.1,19l0,0
				c-51.6,14.5-99.7,38.4-145.9,75.4l0,0c-5.1,4.1-10.2,8.2-15.3,12.2l0,0c-31.7-10.1-68.5-14-112.2-9.3l0,0
				c-49.6,5.3-77.6,23.1-91.6,44.2l0,0c-7.6,11.4-11.1,23.8-11.7,35.8l0,0c-0.6,11.8,1.7,23.1,5.7,32.9l0,0
				c7.4,18.3,21.7,32,35.7,34.3l0,0c18.7,3.1,49.4-10.6,87.2-34.8l0,0c27-17.3,58.8-40.5,92.8-66.9l0,0c8.7,3.6,17,7.7,24.8,12.3
				l0,0c36.1,21.2,64.1,52.8,89.7,86l0,0c25.3,32.7,39.9,63,48.3,90.9l0,0c8.5,28.1,10.8,54.1,11.6,77.9l0,0
				c0.5,15.5-0.4,27.9-3.1,35.4l0,0c-4.2-2.9-9.8-8.7-16.8-17.9l0,0c-9.1-11.9-18.1-24.5-27.1-37l0,0c-34-47.3-68.1-94.7-92.7-82
				l0,0c-23.1,11.9-16.5,51-10,89.4l0,0c1.5,9,3.1,18.1,4.1,25.7l0,0c1.6,11.8-0.1,24.4-4.3,31.6l0,0l-0.1,0.2
				c-5.2-3.9-11.8-13.7-19.9-32.1l0,0c-34.3-77.3-38.8-136.2-38.8-136.4l0,0c-0.7-8.8-8.4-15.4-17.2-14.7l0,0
				c-8.8,0.7-15.4,8.4-14.7,17.2l0,0c0,0.2,4.9,64.2,41.6,146.8l0,0c12.1,27.3,24.2,42.1,35.1,48.2l0,0c9,5,17.5,5.3,25.4,2.1l0,0
				c6.9-2.8,12.4-8.2,16.5-15.3l0,0c7.5-12.9,10.8-33.7,8.3-52l0,0c-1.2-9-2.7-17.8-4.2-26.7l0,0c-4.6-27-9.2-54.5-6.9-55.7l0,0
				c0.1-0.1,26.1,36.1,52.1,72.2l0,0c9.6,13.3,19.2,26.7,27.6,37.7l0,0c11.7,15.4,22,24.6,31,28.8l0,0c9.2,4.3,17.6,4.3,25.2,0.6
				l0,0c6.8-3.3,11.8-9.4,15.2-17.6l0,0c4.8-11.6,6.6-29.1,5.9-49.8l0,0c-0.8-26.3-3.4-54.9-12.8-86.1l0,0
				c-9.5-31.3-25.7-65.1-53.7-101.3l0,0c-27.7-35.8-58.2-70-98.9-94l0,0c-4.2-2.4-8.4-4.8-12.8-7l0,0l1.4-1.1
				c42.6-34.1,86.9-56.1,134.6-69.5l0,0c48.1-13.5,99.7-18.4,156.2-17.8l0,0c33.2,0.3,65.5,7.4,95.7,19.7l0,0l-0.5,0.3
				c-50.9,33.8-92.4,81.4-117.8,134.7l0,0c-3.7,7.8-7,16-9.9,24.6l0,0c-17.3,52-19.4,117.7-12.4,172.6l0,0
				c7.4,57.9,26.3,105.6,49.6,116.8l0,0c1.4,0.7,2.7,1.2,3.9,1.6l0,0l0,0l0.1,0c31.9,10.6,53.1-19.3,67.7-62.3l0,0
				c12.2-35.7,20.4-80.8,26.2-114.2l0,0c8.8-50.6,17.7-50.5,25.7-50.5l0,0h0.1l1.3,0l1.3,0h0.1c7.9,0,16.8-0.1,25.7,50.5l0,0
				c5.8,33.4,14.1,78.5,26.2,114.2l0,0c14.6,43,35.9,72.9,67.7,62.3l0,0l0.1,0l0,0c1.2-0.4,2.6-0.9,3.9-1.6l0,0
				c23.3-11.1,42.2-58.8,49.6-116.8l0,0c7.1-54.9,5-120.6-12.4-172.6l0,0c-2.9-8.6-6.2-16.9-9.9-24.6l0,0
				c-25.5-53.2-67-100.9-117.8-134.7l0,0l-0.5-0.3c30.1-12.3,62.4-19.4,95.7-19.7l0,0c56.5-0.5,108.1,4.3,156.2,17.8l0,0
				c47.7,13.4,92,35.5,134.6,69.5l0,0l1.4,1.1c-4.4,2.2-8.6,4.5-12.8,7l0,0c-40.7,23.9-71.2,58.2-98.9,94l0,0
				c-28,36.2-44.2,70-53.7,101.3l0,0c-9.4,31.2-12,59.8-12.8,86.1l0,0c-0.6,20.7,1.1,38.2,5.9,49.8l0,0c3.4,8.2,8.4,14.2,15.2,17.6
				l0,0c7.6,3.7,16,3.8,25.2-0.6l0,0c9-4.2,19.3-13.5,31-28.8l0,0c8.4-11,18-24.4,27.6-37.7l0,0c26-36.1,52-72.2,52.1-72.2l0,0
				c2.3,1.2-2.4,28.7-6.9,55.7l0,0c-1.5,8.9-3,17.7-4.2,26.7l0,0c-2.5,18.3,0.8,39,8.3,52l0,0c4.1,7.1,9.6,12.5,16.5,15.3l0,0
				c7.9,3.2,16.4,2.9,25.4-2.1l0,0c10.9-6.1,23-20.8,35.1-48.2l0,0c36.7-82.6,41.6-146.6,41.6-146.8l0,0c0.7-8.8-5.9-16.5-14.7-17.2
				l0,0c-8.8-0.7-16.5,5.9-17.2,14.7l0,0c0,0.2-4.5,59.1-38.8,136.4l0,0c-8.2,18.4-14.8,28.2-19.9,32.1l0,0l-0.1-0.2
				c-4.2-7.2-5.9-19.9-4.3-31.6l0,0c1-7.6,2.6-16.7,4.1-25.7l0,0c6.5-38.4,13.1-77.4-10-89.4l0,0c-24.6-12.7-58.7,34.6-92.7,82l0,0
				c-9,12.5-18,25-27.1,37l0,0c-7,9.2-12.6,15-16.8,17.9l0,0c-2.6-7.4-3.5-19.9-3.1-35.4l0,0c0.7-23.9,3.1-49.8,11.6-77.9l0,0
				c8.4-28,23-58.2,48.3-90.9l0,0c25.6-33.2,53.6-64.7,89.7-86l0,0c7.8-4.6,16.1-8.7,24.8-12.3l0,0c34,26.4,65.7,49.6,92.8,66.9l0,0
				c37.7,24.2,68.5,37.8,87.2,34.8l0,0c14-2.3,28.2-16,35.7-34.3l0,0c4-9.7,6.2-21.1,5.7-32.9l0,0c-0.6-12-4.1-24.3-11.7-35.8l0,0
				c-14.1-21.2-42.1-38.9-91.6-44.2l0,0c-43.7-4.7-80.5-0.7-112.2,9.3l0,0c-5.1-4-10.2-8.1-15.3-12.2l0,0
				c-46.2-37-94.3-60.9-145.9-75.4l0,0c-48.7-13.7-100.5-19-156.8-19l0,0C-418.4,846.7-421.1,846.7-423.9,846.7 M-664.2,1318.7
				L-664.2,1318.7l-0.3-0.1c-13.4-6.4-25.5-44.1-31.7-91.9l0,0c-6.5-50.9-4.8-111.4,11-158.6l0,0c2.4-7.3,5.2-14.3,8.4-20.9l0,0
				c23-48,60.6-91.1,106.7-121.7l0,0c5.5-3.6,11.1-7.1,16.8-10.4l0,0c5.7,3.3,11.3,6.7,16.8,10.4l0,0
				c46.1,30.6,83.7,73.7,106.7,121.7l0,0c3.2,6.6,5.9,13.6,8.4,20.9l0,0c15.7,47.2,17.5,107.7,11,158.6l0,0
				c-6.1,47.8-18.3,85.5-31.7,91.9l0,0l-0.3,0.1l0,0c-8.9,2.9-18.5-16.3-27.3-42.2l0,0c-11.3-33.3-19.3-77-25-109.4l0,0
				c-13.5-77.1-36.7-77-57.4-77l0,0l-1.2,0l-1.2,0c-20.7-0.1-43.9-0.2-57.4,77l0,0c-5.7,32.4-13.6,76.1-25,109.4l0,0
				c-8.3,24.2-17.2,42.5-25.5,42.5l0,0C-663,1319-663.6,1318.9-664.2,1318.7 M6.7,1029.4c-21.6-13.9-46.1-31.4-72.3-51.2l0,0
				c22.5-4.4,47.8-5.5,76.7-2.4l0,0c38.5,4.1,59,16.1,68.3,30.1l0,0c4.2,6.3,6.1,13,6.4,19.6l0,0c0.3,6.8-1,13.5-3.4,19.3l0,0
				c-3.4,8.3-7.8,14.2-11.1,14.7l0,0c-0.6,0.1-1.3,0.2-2,0.2l0,0C58.4,1059.7,36.1,1048.2,6.7,1029.4 M-1178.1,1059.5
				c-3.3-0.5-7.7-6.4-11.1-14.7l0,0c-2.4-5.8-3.7-12.5-3.4-19.3l0,0c0.3-6.5,2.2-13.3,6.4-19.6l0,0c9.3-14,29.8-25.9,68.3-30.1l0,0
				c28.9-3.1,54.2-2,76.7,2.4l0,0c-26.1,19.8-50.6,37.4-72.3,51.2l0,0c-29.4,18.8-51.7,30.3-62.7,30.3l0,0
				C-1176.8,1059.7-1177.5,1059.6-1178.1,1059.5"/>
		</g>
	</g>
</g>
</svg>
