<?xml version="1.0" encoding="utf-8"?>
<!-- Generator: Adobe Illustrator 19.0.0, SVG Export Plug-In . SVG Version: 6.00 Build 0)  -->
<svg version="1.1"
	 id="svg2" xmlns:dc="http://purl.org/dc/elements/1.1/" xmlns:cc="http://creativecommons.org/ns#" xmlns:svg="http://www.w3.org/2000/svg" xmlns:rdf="http://www.w3.org/1999/02/22-rdf-syntax-ns#" xmlns:inkscape="http://www.inkscape.org/namespaces/inkscape" xmlns:sodipodi="http://sodipodi.sourceforge.net/DTD/sodipodi-0.dtd" sodipodi:docname="collab_me_blue_logo.ai"
	 xmlns="http://www.w3.org/2000/svg" xmlns:xlink="http://www.w3.org/1999/xlink" x="0px" y="0px"
	 viewBox="-396 1238.7 1365.3 1365.3" style="enable-background:new -396 1238.7 1365.3 1365.3;" xml:space="preserve">
<style type="text/css">
	.st0{fill:#FFFFFF;}
</style>
<sodipodi:namedview  id="namedview4" bordercolor="#666666" pagecolor="#ffffff" borderopacity="1" objecttolerance="10" gridtolerance="10" guidetolerance="10" inkscape:pageopacity="0" inkscape:pageshadow="2" inkscape:window-height="480" inkscape:window-width="640">
	</sodipodi:namedview>
<g id="g14">
	<g id="g16">
		<g id="g22">
			<g id="g24">
				<path id="path34" class="st0" d="M240.8,1518c-0.3,0.2-0.6,0.5-0.8,0.8l0,0c-11.9,11.9-19.3,28.3-19.3,46.5l0,0
					c0,18.1,7.4,34.6,19.3,46.5l0,0l0.1,0.1c11.9,11.9,28.3,19.3,46.5,19.3l0,0c18.2,0,34.6-7.4,46.5-19.3l0,0l0,0l0,0
					c11.9-11.9,19.3-28.3,19.3-46.5l0,0c0-18.2-7.4-34.6-19.3-46.5l0,0c-11.9-11.9-28.4-19.3-46.5-19.3l0,0
					C268.7,1499.5,252.6,1506.5,240.8,1518 M259.2,1592.5c-6.9-7-11.2-16.6-11.2-27.2l0,0c0-10.6,4.3-20.2,11.3-27.2l0,0
					c0.2-0.2,0.4-0.4,0.6-0.6l0,0c6.9-6.6,16.3-10.7,26.6-10.7l0,0c10.6,0,20.3,4.3,27.2,11.3l0,0c7,7,11.3,16.6,11.3,27.2l0,0
					c0,10.6-4.3,20.3-11.2,27.2l0,0l0,0c-7,7-16.6,11.3-27.2,11.3l0,0C275.8,1603.7,266.2,1599.4,259.2,1592.5 M664.4,1576
					c-0.3,0.2-0.6,0.5-0.8,0.8l0,0c-11.9,11.9-19.3,28.3-19.3,46.5l0,0c0,18.1,7.4,34.6,19.3,46.5l0,0l0.1,0.1
					c11.9,11.9,28.3,19.3,46.5,19.3l0,0c18.2,0,34.6-7.4,46.5-19.3l0,0l0,0l0,0c11.9-11.9,19.3-28.3,19.3-46.5l0,0
					c0-18.2-7.4-34.6-19.3-46.5l0,0c-11.9-11.9-28.4-19.3-46.5-19.3l0,0C692.3,1557.6,676.2,1564.6,664.4,1576 M682.8,1650.6
					c-6.9-7-11.2-16.6-11.2-27.2l0,0c0-10.6,4.3-20.3,11.3-27.2l0,0c0.2-0.2,0.4-0.4,0.6-0.6l0,0c6.9-6.6,16.3-10.7,26.6-10.7l0,0
					c10.6,0,20.2,4.3,27.2,11.3l0,0c7,7,11.3,16.6,11.3,27.2l0,0c0,10.6-4.3,20.3-11.2,27.2l0,0l0,0c-7,7-16.6,11.3-27.2,11.3l0,0
					C699.4,1661.8,689.8,1657.5,682.8,1650.6 M-183.6,1576.8L-183.6,1576.8L-183.6,1576.8c-12,11.9-19.3,28.3-19.3,46.5l0,0
					c0,18.1,7.4,34.6,19.3,46.5l0,0l0.1,0.1c11.9,11.9,28.3,19.3,46.5,19.3l0,0c18.2,0,34.6-7.4,46.5-19.3l0,0
					c0.3-0.3,0.5-0.6,0.8-0.8l0,0c11.4-11.8,18.5-27.9,18.5-45.7l0,0c0-18.2-7.4-34.6-19.3-46.5l0,0c-11.9-11.9-28.3-19.3-46.5-19.3
					l0,0C-155.3,1557.6-171.7,1564.9-183.6,1576.8 M-164.4,1650.6c-6.9-7-11.2-16.6-11.2-27.2l0,0c0-10.6,4.3-20.3,11.3-27.2l0,0
					l0,0c7-6.9,16.6-11.2,27.2-11.2l0,0c10.6,0,20.3,4.3,27.2,11.3l0,0c7,7,11.3,16.6,11.3,27.2l0,0c0,10.3-4.1,19.7-10.7,26.6l0,0
					c-0.2,0.2-0.4,0.4-0.6,0.6l0,0c-7,7-16.6,11.3-27.2,11.3l0,0C-147.8,1661.8-157.4,1657.5-164.4,1650.6 M396.6,1646.3
					c-38.9,0.4-76.3,10.3-110.1,27.2l0,0c-33.8-16.9-71.2-26.9-110.1-27.2l0,0c-50.6-0.5-96.9,3.9-140.4,16.1l0,0
					c-43.9,12.4-84.8,32.7-124.1,64.2l0,0c-4.4,3.5-8.7,6.9-13,10.3l0,0c-27-8.6-58.3-11.9-95.5-7.9l0,0c-42.2,4.5-66,19.6-78,37.6
					l0,0c-6.5,9.7-9.5,20.2-9.9,30.4l0,0c-0.5,10,1.5,19.7,4.8,27.9l0,0c6.3,15.6,18.5,27.2,30.4,29.2l0,0c15.9,2.6,42-9,74.1-29.6
					l0,0c23-14.7,50-34.5,78.9-57l0,0c7.4,3.1,14.5,6.6,21.1,10.5l0,0c30.7,18.1,54.5,44.9,76.3,73.1l0,0
					c21.5,27.8,33.9,53.6,41.1,77.3l0,0c7.2,23.9,9.2,46,9.9,66.3l0,0c0.4,13.2-0.4,23.8-2.6,30.1l0,0c-3.6-2.5-8.3-7.4-14.3-15.2
					l0,0c-7.8-10.2-15.4-20.8-23.1-31.4l0,0c-29-40.3-57.9-80.5-78.9-69.7l0,0c-19.7,10.1-14,43.4-8.5,76l0,0
					c1.3,7.7,2.6,15.4,3.5,21.9l0,0c1.4,10-0.1,20.8-3.7,26.9l0,0l-0.1,0.2c-4.4-3.3-10-11.7-17-27.3l0,0
					c-29.2-65.7-33-115.9-33-116l0,0c-0.6-7.5-7.2-13.1-14.7-12.5l0,0c-7.5,0.6-13.1,7.2-12.5,14.7l0,0c0,0.2,4.2,54.6,35.4,124.9
					l0,0c10.3,23.2,20.6,35.8,29.9,41l0,0c7.6,4.3,14.9,4.5,21.6,1.8l0,0c5.9-2.4,10.5-7,14.1-13l0,0c6.4-11,9.2-28.7,7.1-44.2l0,0
					c-1-7.6-2.3-15.2-3.6-22.7l0,0c-3.9-23-7.8-46.3-5.9-47.4l0,0c0.1-0.1,22.2,30.7,44.3,61.4l0,0c8.2,11.3,16.3,22.7,23.5,32.1
					l0,0c10,13.1,18.8,20.9,26.4,24.5l0,0c7.8,3.7,15,3.7,21.4,0.5l0,0c5.8-2.8,10-8,12.9-14.9l0,0c4.1-9.8,5.6-24.7,5-42.3l0,0
					c-0.7-22.4-2.9-46.7-10.9-73.2l0,0c-8-26.7-21.9-55.4-45.7-86.2l0,0c-23.5-30.4-49.5-59.6-84.1-80l0,0c-3.5-2.1-7.2-4.1-10.9-6
					l0,0l1.2-0.9c36.2-29,74-47.7,114.5-59.2l0,0c40.9-11.5,84.8-15.6,132.9-15.2l0,0c28.3,0.3,55.8,6.3,81.4,16.8l0,0l-0.4,0.3
					c-43.3,28.7-78.6,69.3-100.2,114.6l0,0c-3.2,6.6-6,13.6-8.4,21l0,0c-14.7,44.2-16.5,100.2-10.5,146.9l0,0
					c6.3,49.3,22.4,89.8,42.2,99.3l0,0c1.2,0.6,2.3,1,3.3,1.4l0,0l0,0l0,0c27.1,9,45.1-16.4,57.6-53l0,0
					c10.3-30.3,17.4-68.7,22.3-97.1l0,0c7.5-43,15.1-43,21.8-43l0,0h0.1h1.1h1.1h0.1c6.7,0,14.3-0.1,21.8,43l0,0
					c5,28.4,12,66.8,22.3,97.1l0,0c12.5,36.6,30.5,62,57.6,53l0,0l0,0l0,0c1.1-0.4,2.2-0.8,3.3-1.4l0,0c19.8-9.5,35.9-50,42.2-99.3
					l0,0c6-46.7,4.2-102.6-10.5-146.9l0,0c-2.4-7.3-5.2-14.4-8.4-21l0,0c-21.7-45.3-57-85.8-100.2-114.6l0,0l-0.4-0.3
					c25.6-10.5,53.1-16.5,81.4-16.8l0,0c48.1-0.4,91.9,3.7,132.9,15.2l0,0c40.6,11.4,78.3,30.2,114.5,59.2l0,0l1.2,0.9
					c-3.7,1.9-7.3,3.9-10.9,6l0,0c-34.6,20.4-60.6,49.5-84.1,80l0,0c-23.8,30.8-37.6,59.5-45.7,86.2l0,0
					c-8,26.5-10.2,50.9-10.9,73.2l0,0c-0.6,17.6,1,32.5,5,42.3l0,0c2.9,7,7.1,12.1,12.9,14.9l0,0c6.5,3.2,13.6,3.2,21.4-0.5l0,0
					c7.6-3.6,16.4-11.5,26.4-24.5l0,0c7.2-9.4,15.3-20.7,23.5-32.1l0,0c22.1-30.7,44.2-61.5,44.3-61.4l0,0c2,1-2,24.4-5.9,47.4l0,0
					c-1.3,7.6-2.6,15.1-3.6,22.7l0,0c-2.1,15.5,0.7,33.2,7.1,44.2l0,0c3.5,6,8.2,10.6,14.1,13l0,0c6.7,2.7,14,2.4,21.6-1.8l0,0
					c9.3-5.2,19.6-17.7,29.9-41l0,0c31.2-70.3,35.4-124.7,35.4-124.9l0,0c0.6-7.5-5-14.1-12.5-14.7l0,0c-7.5-0.6-14.1,5-14.7,12.5
					l0,0c0,0.1-3.8,50.3-33,116l0,0c-7,15.6-12.6,24-17,27.3l0,0l-0.1-0.2c-3.6-6.2-5-16.9-3.7-26.9l0,0c0.9-6.5,2.2-14.2,3.5-21.9
					l0,0c5.5-32.7,11.2-65.9-8.5-76l0,0c-20.9-10.8-49.9,29.5-78.9,69.7l0,0c-7.7,10.6-15.3,21.3-23.1,31.4l0,0
					c-6,7.8-10.7,12.8-14.3,15.2l0,0c-2.2-6.3-3-16.9-2.6-30.1l0,0c0.6-20.3,2.6-42.4,9.9-66.3l0,0c7.2-23.8,19.6-49.5,41.1-77.3
					l0,0c21.8-28.2,45.6-55.1,76.3-73.1l0,0c6.7-3.9,13.7-7.4,21.1-10.5l0,0c28.9,22.5,55.9,42.2,78.9,57l0,0
					c32.1,20.6,58.3,32.2,74.1,29.6l0,0c11.9-1.9,24-13.6,30.4-29.2l0,0c3.4-8.3,5.3-17.9,4.8-27.9l0,0c-0.5-10.2-3.5-20.7-9.9-30.4
					l0,0c-12-18-35.8-33.1-78-37.6l0,0c-37.2-4-68.5-0.6-95.5,7.9l0,0c-4.3-3.4-8.7-6.8-13-10.3l0,0
					c-39.3-31.5-80.2-51.8-124.1-64.2l0,0c-41.5-11.7-85.5-16.2-133.4-16.2l0,0C401.3,1646.3,398.9,1646.3,396.6,1646.3
					 M192.1,2047.9L192.1,2047.9l-0.2-0.1c-11.4-5.4-21.7-37.5-26.9-78.2l0,0c-5.6-43.3-4-94.7,9.3-134.9l0,0
					c2.1-6.2,4.4-12.2,7.1-17.8l0,0c19.6-40.9,51.5-77.5,90.8-103.6l0,0c4.7-3.1,9.4-6,14.3-8.8l0,0c4.9,2.8,9.6,5.7,14.3,8.8l0,0
					c39.2,26.1,71.2,62.7,90.8,103.6l0,0c2.7,5.6,5.1,11.6,7.1,17.8l0,0c13.4,40.2,14.9,91.6,9.3,134.9l0,0
					c-5.2,40.7-15.6,72.8-26.9,78.2l0,0l-0.2,0.1l0,0c-7.5,2.4-15.7-13.9-23.2-35.9l0,0c-9.6-28.3-16.4-65.5-21.2-93.1l0,0
					c-11.5-65.6-31.2-65.5-48.8-65.5l0,0h-1.1h-1.1c-17.6-0.1-37.4-0.2-48.8,65.5l0,0c-4.8,27.6-11.6,64.8-21.2,93.1l0,0
					c-7,20.6-14.6,36.2-21.7,36.2l0,0C193.1,2048.1,192.6,2048,192.1,2047.9 M762.9,1801.7c-18.4-11.8-39.2-26.7-61.5-43.6l0,0
					c19.2-3.7,40.7-4.6,65.3-2l0,0c32.7,3.5,50.2,13.7,58.1,25.6l0,0c3.6,5.3,5.2,11.1,5.5,16.7l0,0c0.3,5.8-0.9,11.5-2.9,16.4l0,0
					c-2.9,7.1-6.6,12.1-9.4,12.5l0,0c-0.5,0.1-1.1,0.1-1.7,0.1l0,0C806.9,1827.5,787.9,1817.7,762.9,1801.7 M-245,1827.3
					c-2.8-0.5-6.6-5.5-9.4-12.5l0,0c-2-5-3.2-10.7-2.9-16.4l0,0c0.3-5.6,1.9-11.3,5.5-16.7l0,0c7.9-11.9,25.4-22.1,58.1-25.6l0,0
					c24.6-2.6,46.1-1.7,65.3,2l0,0c-22.2,16.9-43.1,31.8-61.5,43.6l0,0c-25,16-44,25.8-53.3,25.8l0,0
					C-243.9,1827.5-244.5,1827.4-245,1827.3"/>
			</g>
		</g>
	</g>
</g>
<g id="text60" transform="matrix(1,0,0,-1,188.0479,311.5)">
	<path id="path62" class="st0" d="M-277.2-1841.2c-2.6,3.1-5.6,5.4-9.1,7.1c-3.4,1.8-6.9,2.7-10.3,2.7c-4.2,0-8-1-11.5-3.1
		s-6.2-4.9-8.2-8.4s-3-7.5-3-11.8s1-8.3,3-11.9s4.7-6.4,8.2-8.5s7.3-3.1,11.5-3.1c3.3,0,6.7,0.8,10.1,2.3c3.5,1.6,6.6,3.8,9.3,6.5
		l9.9-10.8c-4-4.1-8.7-7.4-14.1-9.8c-5.3-2.4-10.7-3.6-16.1-3.6c-7.3,0-14,1.7-19.9,5c-6,3.4-10.7,8.1-14.1,14s-5.1,12.5-5.1,19.7
		s1.7,13.7,5.2,19.5s8.2,10.4,14.3,13.8c6.1,3.3,12.9,5,20.3,5c5.4,0,10.7-1.1,16-3.4c5.3-2.2,9.7-5.2,13.4-9.1L-277.2-1841.2z"/>
	<path id="path64" class="st0" d="M-188.6-1816.6c7.5,0,14.3-1.7,20.4-5c6.1-3.3,10.9-8,14.4-13.9c3.6-5.8,5.3-12.3,5.3-19.5
		s-1.8-13.7-5.3-19.6s-8.3-10.6-14.4-14c-6.1-3.3-12.9-5-20.4-5s-14.3,1.7-20.4,5c-6.1,3.4-11,8-14.5,13.9s-5.2,12.5-5.2,19.7
		s1.7,13.7,5.2,19.5c3.6,5.9,8.4,10.5,14.4,13.9C-202.9-1818.3-196.1-1816.6-188.6-1816.6z M-188.4-1831.3c-4.1,0-8-1.1-11.5-3.2
		c-3.6-2.1-6.4-4.9-8.4-8.5c-2.1-3.6-3.1-7.6-3.1-11.9c0-4.4,1-8.4,3.1-12.1c2.1-3.6,4.9-6.5,8.4-8.6c3.6-2.1,7.4-3.2,11.5-3.2
		s7.9,1,11.3,3.1c3.5,2.1,6.2,5,8.2,8.6c2.1,3.7,3.1,7.8,3.1,12.2c0,4.3-1,8.3-3.1,11.9c-2,3.6-4.7,6.5-8.2,8.5
		C-180.5-1832.4-184.2-1831.3-188.4-1831.3z"/>
	<path id="path66" class="st0" d="M-101.5-1817.8h16.9v-59.9h32v-14.7h-48.9V-1817.8z"/>
	<path id="path68" class="st0" d="M-5.7-1817.8h16.9v-59.9h32v-14.7H-5.7V-1817.8z"/>
	<path id="path70" class="st0" d="M145.9-1892.5L140-1878h-34.6l-5.9-14.5H82.2l32.4,74.7H132l31.9-74.7H145.9z M111-1864.4h23.6
		l-11.7,29L111-1864.4z"/>
	<path id="path72" class="st0" d="M237-1817.8c8.2,0,14.8-1.7,19.5-5c4.8-3.3,7.1-7.9,7.1-13.7c0-4-1.2-7.5-3.5-10.5
		c-2.3-2.9-5.4-4.9-9.4-6c4.8-0.9,8.6-3.1,11.4-6.5c2.8-3.3,4.2-7.5,4.2-12.4c0-6.4-2.5-11.4-7.6-15.1c-5-3.7-11.9-5.5-20.6-5.5
		h-35.5v74.7H237z M236.2-1847.9c3.2,0,5.7,0.7,7.5,2.1c1.8,1.5,2.8,3.6,2.8,6.2s-0.9,4.6-2.8,6c-1.8,1.4-4.3,2.1-7.5,2h-16.6v-16.3
		L236.2-1847.9L236.2-1847.9z M236.2-1878.7c4,0,7.1,0.8,9.4,2.3c2.3,1.6,3.4,3.9,3.4,6.7c0,2.7-1.1,4.8-3.4,6.4
		c-2.3,1.6-5.4,2.3-9.4,2.2h-16.6v-17.7L236.2-1878.7L236.2-1878.7z"/>
	<path id="path74" class="st0" d="M315.8-1817.8h18.8l23.3-45.9l23,45.9h18.7v-74.7h-15.1v50.5l-21.2-42.9h-10.9l-21.3,42.9v-50.5
		h-15.3V-1817.8z"/>
	<path id="path76" class="st0" d="M449.7-1817.8h56.9v-14h-40v-16.2h35.9v-14h-35.9v-16.5h41.2v-14h-58v74.7H449.7z"/>
</g>
</svg>
