<?xml version="1.0" encoding="utf-8"?>
<!-- Generator: Adobe Illustrator 19.0.0, SVG Export Plug-In . SVG Version: 6.00 Build 0)  -->
<svg version="1.1" id="Layer_1" xmlns="http://www.w3.org/2000/svg" xmlns:xlink="http://www.w3.org/1999/xlink" x="0px" y="0px"
	 viewBox="0 0 200 100" style="enable-background:new 0 0 200 100;" xml:space="preserve">
<style type="text/css">
	.st0{fill:#FFFFFF;}
</style>
<g id="g14">
	<g id="g16">
		<g id="g22">
			<g id="g24">
				<path id="path34" class="st0" d="M91.8,3.7c0,0-0.1,0.1-0.1,0.1l0,0C90.1,5.5,89,7.7,89,10.3l0,0c0,2.5,1,4.8,2.7,6.4l0,0l0,0
					c1.6,1.6,3.9,2.7,6.4,2.7l0,0c2.5,0,4.8-1,6.4-2.7l0,0l0,0l0,0c1.6-1.6,2.7-3.9,2.7-6.4l0,0c0-2.5-1-4.8-2.7-6.4l0,0
					c-1.6-1.6-3.9-2.7-6.4-2.7l0,0C95.7,1.2,93.4,2.1,91.8,3.7 M94.4,14c-1-1-1.6-2.3-1.6-3.8l0,0c0-1.5,0.6-2.8,1.6-3.8l0,0
					c0,0,0.1-0.1,0.1-0.1l0,0c1-0.9,2.3-1.5,3.7-1.5l0,0c1.5,0,2.8,0.6,3.8,1.6l0,0c1,1,1.6,2.3,1.6,3.8l0,0c0,1.5-0.6,2.8-1.6,3.8
					l0,0l0,0c-1,1-2.3,1.6-3.8,1.6l0,0C96.7,15.6,95.3,15,94.4,14 M150.4,11.7c0,0-0.1,0.1-0.1,0.1l0,0c-1.6,1.6-2.7,3.9-2.7,6.4
					l0,0c0,2.5,1,4.8,2.7,6.4l0,0l0,0c1.6,1.6,3.9,2.7,6.4,2.7l0,0c2.5,0,4.8-1,6.4-2.7l0,0l0,0l0,0c1.6-1.6,2.7-3.9,2.7-6.4l0,0
					c0-2.5-1-4.8-2.7-6.4l0,0c-1.6-1.6-3.9-2.7-6.4-2.7l0,0C154.3,9.2,152.1,10.2,150.4,11.7 M153,22.1c-1-1-1.6-2.3-1.6-3.8l0,0
					c0-1.5,0.6-2.8,1.6-3.8l0,0c0,0,0.1-0.1,0.1-0.1l0,0c1-0.9,2.3-1.5,3.7-1.5l0,0c1.5,0,2.8,0.6,3.8,1.6l0,0c1,1,1.6,2.3,1.6,3.8
					l0,0c0,1.5-0.6,2.8-1.6,3.8l0,0l0,0c-1,1-2.3,1.6-3.8,1.6l0,0C155.3,23.6,154,23,153,22.1 M33.1,11.9L33.1,11.9L33.1,11.9
					c-1.7,1.6-2.7,3.9-2.7,6.4l0,0c0,2.5,1,4.8,2.7,6.4l0,0l0,0c1.6,1.6,3.9,2.7,6.4,2.7l0,0c2.5,0,4.8-1,6.4-2.7l0,0
					c0,0,0.1-0.1,0.1-0.1l0,0c1.6-1.6,2.6-3.9,2.6-6.3l0,0c0-2.5-1-4.8-2.7-6.4l0,0c-1.6-1.6-3.9-2.7-6.4-2.7l0,0
					C37,9.2,34.7,10.2,33.1,11.9 M35.7,22.1c-1-1-1.6-2.3-1.6-3.8l0,0c0-1.5,0.6-2.8,1.6-3.8l0,0l0,0c1-1,2.3-1.6,3.8-1.6l0,0
					c1.5,0,2.8,0.6,3.8,1.6l0,0c1,1,1.6,2.3,1.6,3.8l0,0c0,1.4-0.6,2.7-1.5,3.7l0,0c0,0-0.1,0.1-0.1,0.1l0,0c-1,1-2.3,1.6-3.8,1.6
					l0,0C38,23.6,36.7,23,35.7,22.1 M113.4,21.5c-5.4,0.1-10.6,1.4-15.2,3.8l0,0c-4.7-2.3-9.9-3.7-15.2-3.8l0,0
					c-7-0.1-13.4,0.5-19.4,2.2l0,0c-6.1,1.7-11.7,4.5-17.2,8.9l0,0c-0.6,0.5-1.2,1-1.8,1.4l0,0c-3.7-1.2-8.1-1.6-13.2-1.1l0,0
					c-5.8,0.6-9.1,2.7-10.8,5.2l0,0c-0.9,1.3-1.3,2.8-1.4,4.2l0,0c-0.1,1.4,0.2,2.7,0.7,3.9l0,0c0.9,2.2,2.6,3.8,4.2,4l0,0
					c2.2,0.4,5.8-1.2,10.3-4.1l0,0c3.2-2,6.9-4.8,10.9-7.9l0,0c1,0.4,2,0.9,2.9,1.5l0,0c4.2,2.5,7.5,6.2,10.6,10.1l0,0
					c3,3.8,4.7,7.4,5.7,10.7l0,0c1,3.3,1.3,6.4,1.4,9.2l0,0c0.1,1.8-0.1,3.3-0.4,4.2l0,0c-0.5-0.3-1.1-1-2-2.1l0,0
					c-1.1-1.4-2.1-2.9-3.2-4.3l0,0c-4-5.6-8-11.1-10.9-9.6l0,0c-2.7,1.4-1.9,6-1.2,10.5l0,0c0.2,1.1,0.4,2.1,0.5,3l0,0
					c0.2,1.4,0,2.9-0.5,3.7l0,0l0,0c-0.6-0.5-1.4-1.6-2.4-3.8l0,0c-4-9.1-4.6-16-4.6-16.1l0,0c-0.1-1-1-1.8-2-1.7l0,0
					c-1,0.1-1.8,1-1.7,2l0,0c0,0,0.6,7.6,4.9,17.3l0,0c1.4,3.2,2.9,5,4.1,5.7l0,0c1.1,0.6,2.1,0.6,3,0.2l0,0c0.8-0.3,1.5-1,2-1.8
					l0,0c0.9-1.5,1.3-4,1-6.1l0,0c-0.1-1.1-0.3-2.1-0.5-3.1l0,0c-0.5-3.2-1.1-6.4-0.8-6.6l0,0c0,0,3.1,4.2,6.1,8.5l0,0
					c1.1,1.6,2.3,3.1,3.3,4.4l0,0c1.4,1.8,2.6,2.9,3.7,3.4l0,0c1.1,0.5,2.1,0.5,3,0.1l0,0c0.8-0.4,1.4-1.1,1.8-2.1l0,0
					c0.6-1.4,0.8-3.4,0.7-5.9l0,0c-0.1-3.1-0.4-6.5-1.5-10.1l0,0c-1.1-3.7-3-7.7-6.3-11.9l0,0c-3.3-4.2-6.9-8.2-11.6-11.1l0,0
					c-0.5-0.3-1-0.6-1.5-0.8l0,0l0.2-0.1c5-4,10.2-6.6,15.8-8.2l0,0c5.7-1.6,11.7-2.2,18.4-2.1l0,0c3.9,0,7.7,0.9,11.3,2.3l0,0
					l-0.1,0c-6,4-10.9,9.6-13.9,15.9l0,0c-0.4,0.9-0.8,1.9-1.2,2.9l0,0c-2,6.1-2.3,13.9-1.5,20.3l0,0c0.9,6.8,3.1,12.4,5.8,13.7l0,0
					c0.2,0.1,0.3,0.1,0.5,0.2l0,0l0,0l0,0c3.8,1.2,6.2-2.3,8-7.3l0,0c1.4-4.2,2.4-9.5,3.1-13.4l0,0c1-6,2.1-6,3-6l0,0h0h0.2h0.2h0
					c0.9,0,2,0,3,6l0,0c0.7,3.9,1.7,9.2,3.1,13.4l0,0c1.7,5.1,4.2,8.6,8,7.3l0,0l0,0l0,0c0.2-0.1,0.3-0.1,0.5-0.2l0,0
					c2.7-1.3,5-6.9,5.8-13.7l0,0c0.8-6.5,0.6-14.2-1.5-20.3l0,0c-0.3-1-0.7-2-1.2-2.9l0,0c-3-6.3-7.9-11.9-13.9-15.9l0,0l-0.1,0
					c3.5-1.5,7.4-2.3,11.3-2.3l0,0c6.7-0.1,12.7,0.5,18.4,2.1l0,0c5.6,1.6,10.8,4.2,15.8,8.2l0,0l0.2,0.1c-0.5,0.3-1,0.5-1.5,0.8
					l0,0c-4.8,2.8-8.4,6.9-11.6,11.1l0,0c-3.3,4.3-5.2,8.2-6.3,11.9l0,0c-1.1,3.7-1.4,7-1.5,10.1l0,0c-0.1,2.4,0.1,4.5,0.7,5.9l0,0
					c0.4,1,1,1.7,1.8,2.1l0,0c0.9,0.4,1.9,0.4,3-0.1l0,0c1.1-0.5,2.3-1.6,3.7-3.4l0,0c1-1.3,2.1-2.9,3.3-4.4l0,0
					c3.1-4.2,6.1-8.5,6.1-8.5l0,0c0.3,0.1-0.3,3.4-0.8,6.6l0,0c-0.2,1.1-0.4,2.1-0.5,3.1l0,0c-0.3,2.1,0.1,4.6,1,6.1l0,0
					c0.5,0.8,1.1,1.5,2,1.8l0,0c0.9,0.4,1.9,0.3,3-0.2l0,0c1.3-0.7,2.7-2.5,4.1-5.7l0,0c4.3-9.7,4.9-17.3,4.9-17.3l0,0
					c0.1-1-0.7-2-1.7-2l0,0c-1-0.1-2,0.7-2,1.7l0,0c0,0-0.5,7-4.6,16.1l0,0c-1,2.2-1.7,3.3-2.4,3.8l0,0l0,0
					c-0.5-0.9-0.7-2.3-0.5-3.7l0,0c0.1-0.9,0.3-2,0.5-3l0,0c0.8-4.5,1.6-9.1-1.2-10.5l0,0c-2.9-1.5-6.9,4.1-10.9,9.6l0,0
					c-1.1,1.5-2.1,2.9-3.2,4.3l0,0c-0.8,1.1-1.5,1.8-2,2.1l0,0c-0.3-0.9-0.4-2.3-0.4-4.2l0,0c0.1-2.8,0.4-5.9,1.4-9.2l0,0
					c1-3.3,2.7-6.9,5.7-10.7l0,0c3-3.9,6.3-7.6,10.6-10.1l0,0c0.9-0.5,1.9-1,2.9-1.5l0,0c4,3.1,7.7,5.8,10.9,7.9l0,0
					c4.4,2.9,8.1,4.5,10.3,4.1l0,0c1.6-0.3,3.3-1.9,4.2-4l0,0c0.5-1.1,0.7-2.5,0.7-3.9l0,0c-0.1-1.4-0.5-2.9-1.4-4.2l0,0
					c-1.7-2.5-5-4.6-10.8-5.2l0,0c-5.1-0.6-9.5-0.1-13.2,1.1l0,0c-0.6-0.5-1.2-0.9-1.8-1.4l0,0c-5.4-4.4-11.1-7.2-17.2-8.9l0,0
					c-5.7-1.6-11.8-2.2-18.5-2.2l0,0C114,21.5,113.7,21.5,113.4,21.5 M85.1,77.1L85.1,77.1L85.1,77.1c-1.6-0.8-3-5.2-3.8-10.8l0,0
					c-0.8-6-0.6-13.1,1.3-18.7l0,0c0.3-0.9,0.6-1.7,1-2.5l0,0c2.7-5.7,7.1-10.7,12.6-14.3l0,0c0.7-0.4,1.3-0.8,2-1.2l0,0
					c0.7,0.4,1.3,0.8,2,1.2l0,0c5.4,3.6,9.9,8.7,12.6,14.3l0,0c0.4,0.8,0.7,1.6,1,2.5l0,0c1.9,5.6,2.1,12.7,1.3,18.7l0,0
					c-0.7,5.6-2.2,10.1-3.7,10.8l0,0l0,0l0,0c-1,0.3-2.2-1.9-3.2-5l0,0c-1.3-3.9-2.3-9.1-2.9-12.9l0,0c-1.6-9.1-4.3-9.1-6.8-9.1l0,0
					h-0.2H98c-2.4,0-5.2,0-6.8,9.1l0,0c-0.7,3.8-1.6,9-2.9,12.9l0,0c-1,2.9-2,5-3,5l0,0C85.2,77.1,85.1,77.1,85.1,77.1 M164.1,43
					c-2.5-1.6-5.4-3.7-8.5-6l0,0c2.7-0.5,5.6-0.6,9-0.3l0,0c4.5,0.5,6.9,1.9,8,3.5l0,0c0.5,0.7,0.7,1.5,0.8,2.3l0,0
					c0,0.8-0.1,1.6-0.4,2.3l0,0c-0.4,1-0.9,1.7-1.3,1.7l0,0c-0.1,0-0.2,0-0.2,0l0,0C170.2,46.6,167.5,45.2,164.1,43 M24.6,46.5
					c-0.4-0.1-0.9-0.8-1.3-1.7l0,0c-0.3-0.7-0.4-1.5-0.4-2.3l0,0c0-0.8,0.3-1.6,0.8-2.3l0,0c1.1-1.6,3.5-3.1,8-3.5l0,0
					c3.4-0.4,6.4-0.2,9,0.3l0,0c-3.1,2.3-6,4.4-8.5,6l0,0c-3.5,2.2-6.1,3.6-7.4,3.6l0,0C24.7,46.6,24.6,46.5,24.6,46.5"/>
			</g>
		</g>
	</g>
</g>
<g id="text60" transform="matrix(1,0,0,-1,188.0479,311.5)">
	<path id="path62" class="st0" d="M-141.9,219.9c-0.4,0.4-0.8,0.7-1.3,1c-0.5,0.2-1,0.4-1.4,0.4c-0.6,0-1.1-0.1-1.6-0.4
		c-0.5-0.3-0.9-0.7-1.1-1.2c-0.3-0.5-0.4-1-0.4-1.6c0-0.6,0.1-1.1,0.4-1.6c0.3-0.5,0.7-0.9,1.1-1.2c0.5-0.3,1-0.4,1.6-0.4
		c0.5,0,0.9,0.1,1.4,0.3c0.5,0.2,0.9,0.5,1.3,0.9l1.4-1.5c-0.6-0.6-1.2-1-2-1.4c-0.7-0.3-1.5-0.5-2.2-0.5c-1,0-1.9,0.2-2.8,0.7
		c-0.8,0.5-1.5,1.1-2,1.9c-0.5,0.8-0.7,1.7-0.7,2.7c0,1,0.2,1.9,0.7,2.7c0.5,0.8,1.1,1.4,2,1.9c0.8,0.5,1.8,0.7,2.8,0.7
		c0.7,0,1.5-0.2,2.2-0.5c0.7-0.3,1.3-0.7,1.9-1.3L-141.9,219.9z"/>
	<path id="path64" class="st0" d="M-129.6,223.3c1,0,2-0.2,2.8-0.7c0.8-0.5,1.5-1.1,2-1.9c0.5-0.8,0.7-1.7,0.7-2.7s-0.2-1.9-0.7-2.7
		c-0.5-0.8-1.1-1.5-2-1.9c-0.8-0.5-1.8-0.7-2.8-0.7s-2,0.2-2.8,0.7c-0.8,0.5-1.5,1.1-2,1.9c-0.5,0.8-0.7,1.7-0.7,2.7
		s0.2,1.9,0.7,2.7c0.5,0.8,1.2,1.5,2,1.9C-131.6,223.1-130.7,223.3-129.6,223.3z M-129.6,221.3c-0.6,0-1.1-0.2-1.6-0.4
		c-0.5-0.3-0.9-0.7-1.2-1.2c-0.3-0.5-0.4-1.1-0.4-1.6c0-0.6,0.1-1.2,0.4-1.7c0.3-0.5,0.7-0.9,1.2-1.2c0.5-0.3,1-0.4,1.6-0.4
		c0.6,0,1.1,0.1,1.6,0.4c0.5,0.3,0.9,0.7,1.1,1.2c0.3,0.5,0.4,1.1,0.4,1.7c0,0.6-0.1,1.1-0.4,1.6c-0.3,0.5-0.7,0.9-1.1,1.2
		C-128.5,221.1-129,221.3-129.6,221.3z"/>
	<path id="path66" class="st0" d="M-117.6,223.2h2.3v-8.3h4.4v-2h-6.8V223.2z"/>
	<path id="path68" class="st0" d="M-104.3,223.2h2.3v-8.3h4.4v-2h-6.8V223.2z"/>
	<path id="path70" class="st0" d="M-83.3,212.8l-0.8,2H-89l-0.8-2h-2.4l4.5,10.3h2.4l4.4-10.3H-83.3z M-88.2,216.7h3.3l-1.6,4
		L-88.2,216.7z"/>
	<path id="path72" class="st0" d="M-70.7,223.2c1.1,0,2-0.2,2.7-0.7c0.7-0.5,1-1.1,1-1.9c0-0.6-0.2-1-0.5-1.5
		c-0.3-0.4-0.7-0.7-1.3-0.8c0.7-0.1,1.2-0.4,1.6-0.9c0.4-0.5,0.6-1,0.6-1.7c0-0.9-0.3-1.6-1.1-2.1c-0.7-0.5-1.6-0.8-2.9-0.8h-4.9
		v10.3H-70.7z M-70.8,219c0.4,0,0.8,0.1,1,0.3c0.2,0.2,0.4,0.5,0.4,0.9s-0.1,0.6-0.4,0.8c-0.2,0.2-0.6,0.3-1,0.3h-2.3V219L-70.8,219
		L-70.8,219z M-70.8,214.7c0.6,0,1,0.1,1.3,0.3c0.3,0.2,0.5,0.5,0.5,0.9c0,0.4-0.2,0.7-0.5,0.9c-0.3,0.2-0.7,0.3-1.3,0.3h-2.3v-2.5
		L-70.8,214.7L-70.8,214.7z"/>
	<path id="path74" class="st0" d="M-59.8,223.2h2.6l3.2-6.4l3.2,6.4h2.6v-10.3h-2.1v7l-2.9-5.9h-1.5l-2.9,5.9v-7h-2.1V223.2z"/>
	<path id="path76" class="st0" d="M-41.3,223.2h7.9v-1.9H-39V219h5V217h-5v-2.3h5.7v-1.9h-8L-41.3,223.2L-41.3,223.2z"/>
</g>
</svg>
